HIERARCHY
ROOT Hips
{
	OFFSET 0.000000 0.000000 0.000000
	CHANNELS 6 Xposition Yposition Zposition Xrotation Yrotation Zrotation
	JOINT LeftUpLeg_virtual
	{
		OFFSET 0.000000 0.000000 0.000000
		CHANNELS 3 Xrotation Yrotation Zrotation
		JOINT LeftUpLeg
		{
			OFFSET 13.026900 -6.336304 -1.092800
			CHANNELS 3 Xrotation Yrotation Zrotation
			JOINT LeftLeg
			{
				OFFSET 0.524474 -46.096886 9.782700
				CHANNELS 3 Xrotation Yrotation Zrotation
				JOINT LeftFoot
				{
					OFFSET -0.524474 -53.427422 -12.948200
					CHANNELS 3 Xrotation Yrotation Zrotation
					JOINT LeftToeBase
					{
						OFFSET 0.192200 -14.009700 16.364100
						CHANNELS 3 Xrotation Yrotation Zrotation
						JOINT LeftToe_End
						{
							OFFSET -1.784700 -0.561700 9.474800
							CHANNELS 3 Xrotation Yrotation Zrotation
							End Site
							{
								OFFSET 0 0 0
							}
						}
					}
				}
			}
		}
	}
	JOINT RightUpLeg_virtual
	{
		OFFSET 0.000000 0.000000 0.000000
		CHANNELS 3 Xrotation Yrotation Zrotation
		JOINT RightUpLeg
		{
			OFFSET -12.883000 -6.336304 -1.092800
			CHANNELS 3 Xrotation Yrotation Zrotation
			JOINT RightLeg
			{
				OFFSET -0.524587 -46.096825 9.782800
				CHANNELS 3 Xrotation Yrotation Zrotation
				JOINT RightFoot
				{
					OFFSET 0.524587 -53.427383 -12.948300
					CHANNELS 3 Xrotation Yrotation Zrotation
					JOINT RightToeBase
					{
						OFFSET -0.192200 -14.009700 16.364100
						CHANNELS 3 Xrotation Yrotation Zrotation
						JOINT RightToe_End
						{
							OFFSET 1.784700 -0.561700 9.474800
							CHANNELS 3 Xrotation Yrotation Zrotation
							End Site
							{
								OFFSET 0 0 0
							}
						}
					}
				}
			}
		}
	}
	JOINT Spine_virtual
	{
		OFFSET 0.000000 0.000000 0.000000
		CHANNELS 3 Xrotation Yrotation Zrotation
		JOINT Spine
		{
			OFFSET 0.072000 7.257294 -0.789700
			CHANNELS 3 Xrotation Yrotation Zrotation
			JOINT Spine1
			{
				OFFSET 0.000000 12.508769 -0.658067
				CHANNELS 3 Xrotation Yrotation Zrotation
				JOINT Spine1_split
				{
					OFFSET 0.000000 12.508769 -0.658067
					CHANNELS 3 Xrotation Yrotation Zrotation
					JOINT Spine2
					{
						OFFSET 0.000000 12.508769 -0.658067
						CHANNELS 3 Xrotation Yrotation Zrotation
						JOINT Neck_virtual
						{
							OFFSET 0.000000 0.000000 0.000000
							CHANNELS 3 Xrotation Yrotation Zrotation
							JOINT Neck
							{
								OFFSET 0.000000 14.033295 7.520400
								CHANNELS 3 Xrotation Yrotation Zrotation
								JOINT Head
								{
									OFFSET 0.000000 8.198502 5.703100
									CHANNELS 3 Xrotation Yrotation Zrotation
									JOINT HeadTop_End
									{
										OFFSET 0.000000 17.760803 13.332701
										CHANNELS 3 Xrotation Yrotation Zrotation
										End Site
										{
											OFFSET 0 0 0
										}
									}
								}
							}
						}
						JOINT LeftShoulder_virtual
						{
							OFFSET 0.000000 0.000000 0.000000
							CHANNELS 3 Xrotation Yrotation Zrotation
							JOINT LeftShoulder
							{
								OFFSET 6.292450 5.785301 -0.669000
								CHANNELS 3 Xrotation Yrotation Zrotation
								JOINT LeftShoulder_split
								{
									OFFSET 6.292450 5.785301 -0.669000
									CHANNELS 3 Xrotation Yrotation Zrotation
									JOINT LeftArm
									{
										OFFSET 13.907140 -6.093903 1.965100
										CHANNELS 3 Xrotation Yrotation Zrotation
										JOINT LeftForeArm
										{
											OFFSET 34.140198 0.000000 0.000000
											CHANNELS 3 Xrotation Yrotation Zrotation
											JOINT LeftHand
											{
												OFFSET 40.960209 0.000000 0.000000
												CHANNELS 3 Xrotation Yrotation Zrotation
												End Site
												{
													OFFSET 0 0 0
												}
											}
										}
									}
								}
							}
						}
						JOINT RightShoulder_virtual
						{
							OFFSET 0.000000 0.000000 0.000000
							CHANNELS 3 Xrotation Yrotation Zrotation
							JOINT RightShoulder
							{
								OFFSET -6.292450 5.785301 -0.669000
								CHANNELS 3 Xrotation Yrotation Zrotation
								JOINT RightShoulder_split
								{
									OFFSET -6.292450 5.785301 -0.669000
									CHANNELS 3 Xrotation Yrotation Zrotation
									JOINT RightArm
									{
										OFFSET -13.907140 -6.093903 1.965100
										CHANNELS 3 Xrotation Yrotation Zrotation
										JOINT RightForeArm
										{
											OFFSET -34.140198 0.000000 0.000000
											CHANNELS 3 Xrotation Yrotation Zrotation
											JOINT RightHand
											{
												OFFSET -40.960209 0.000000 0.000000
												CHANNELS 3 Xrotation Yrotation Zrotation
												End Site
												{
													OFFSET 0 0 0
												}
											}
										}
									}
								}
							}
						}
					}
				}
			}
		}
	}
}
MOTION
Frames: 8
Frame Time: 0.03333333
2.105028 101.840569 -2.776871 0.000000 0.000000 0.000000 7.783234 -66.866466 9.266097 -32.290689 16.372317 23.976618 31.297583 -6.932908 1.779889 -6.569500 -4.411124 -15.150259 -0.758476 -0.269614 -0.328377 0.000000 0.000000 0.000000 5.807364 -66.278107 8.214452 -30.172829 -22.659871 -31.380734 31.346774 6.860753 -3.936075 -10.633347 0.440691 21.107969 3.346477 0.212999 0.419597 0.000000 0.000000 0.000000 7.519682 -64.616431 8.910724 12.258188 -0.574132 -4.616699 7.351009 1.731423 -0.986422 0.551619 3.849844 -0.706073 0.000000 0.000000 0.000000 9.737973 1.784998 -2.103038 7.132989 5.041201 4.636908 -24.663977 52.842681 18.812122 0.000000 0.000000 0.000000 9.034615 1.115307 -1.065135 5.504342 -1.556723 -12.549095 -2.846064 -4.664895 2.652804 -34.026855 13.777031 -27.683757 6.721129 -53.836101 4.168568 0.000000 0.000000 0.000000 7.831509 1.703264 -0.589529 -7.962875 7.766343 14.959600 3.038140 0.592011 -1.667560 17.224028 -6.555363 33.136738 -19.784408 39.664008 20.107104 0.000000 0.000000 0.000000 
1.849085 102.144165 -2.302586 0.000000 0.000000 0.000000 7.375354 -66.783438 8.617183 -32.486415 16.113036 24.286607 31.737690 -6.661169 1.848887 -6.557740 -4.487261 -15.346697 -0.766532 -0.264225 -0.325490 0.000000 0.000000 0.000000 5.740949 -66.612998 7.886486 -29.266141 -22.280941 -30.768643 30.151771 6.941169 -3.890472 -10.018743 0.811646 21.683880 2.074892 0.190931 0.451689 0.000000 0.000000 0.000000 7.309728 -64.871279 8.458315 12.284574 -0.589035 -4.260186 7.370803 1.743903 -1.440400 0.080957 3.231310 -0.567361 0.000000 0.000000 0.000000 8.794819 1.806330 -2.292882 7.526054 5.039804 4.478090 -24.317102 54.048298 18.000002 0.000000 0.000000 0.000000 8.696067 1.149641 -1.538851 5.421777 -2.108428 -12.835496 -3.153031 -2.892230 2.205421 -33.099076 16.230430 -27.075263 7.409405 -51.572477 4.665490 0.000000 0.000000 0.000000 7.408108 1.877168 -0.786526 -9.200620 6.410439 15.062556 3.787807 -0.258943 -0.377310 15.118561 -5.587909 31.539399 -18.644152 39.050729 19.795980 0.000000 0.000000 0.000000 
1.479546 102.516762 -1.733913 0.000000 0.000000 0.000000 6.240226 -67.286318 7.149255 -32.544765 15.708733 24.871924 32.451130 -6.053882 1.885424 -6.575258 -4.361948 -15.417233 -0.865607 -0.240666 -0.308397 0.000000 0.000000 0.000000 5.097608 -67.428133 6.826084 -28.006936 -21.885227 -30.117774 28.664859 7.194282 -3.722328 -9.393242 1.326205 22.097308 1.229342 0.186897 0.532685 0.000000 0.000000 0.000000 6.507006 -65.305775 7.297553 12.023913 -0.619499 -3.807771 6.755081 1.438703 -1.549614 0.258148 2.827374 -0.257633 0.000000 0.000000 0.000000 7.457301 1.372372 -2.031739 7.584501 4.986794 3.649387 -22.057753 56.311433 14.625277 0.000000 0.000000 0.000000 7.610148 0.824102 -1.626789 4.955852 -3.400848 -14.420730 -4.016497 -1.814999 2.801190 -28.172751 20.313515 -26.467371 6.617804 -49.006966 4.169272 0.000000 0.000000 0.000000 6.463789 1.625765 -0.690898 -11.311009 3.892640 14.815635 4.442967 -1.081916 0.182573 13.335389 -10.009005 32.720366 -17.543879 41.082929 19.522190 0.000000 0.000000 0.000000 
1.061245 102.700714 -1.283314 0.000000 0.000000 0.000000 4.393394 -68.098762 4.978593 -32.575737 15.217694 25.578266 33.498332 -5.208897 1.917216 -6.707988 -4.124627 -15.347433 -0.967562 -0.202449 -0.294936 0.000000 0.000000 0.000000 3.652115 -68.274817 4.951964 -26.765194 -21.583741 -29.644056 27.499672 7.469736 -3.461537 -8.970533 1.770259 22.348084 0.858365 0.204472 0.605870 0.000000 0.000000 0.000000 5.260952 -65.776743 5.609334 11.502328 -0.689959 -3.334057 5.636826 0.922454 -1.347110 0.343410 1.953587 0.224984 0.000000 0.000000 0.000000 5.958474 0.605012 -1.428888 7.207867 4.960404 2.377751 -17.312697 58.899474 8.661044 0.000000 0.000000 0.000000 6.099882 0.249010 -1.370502 4.184929 -4.975692 -16.914613 -4.601851 -1.507480 4.334831 -20.428508 24.716303 -26.293250 5.225151 -47.877673 3.397710 0.000000 0.000000 0.000000 5.219064 1.053940 -0.345955 -14.057046 0.887469 13.426651 4.141940 -0.968159 -0.181338 12.381741 -19.696109 36.842655 -16.933919 47.019890 19.367669 0.000000 0.000000 0.000000 
0.682257 102.501747 -0.809093 0.000000 0.000000 0.000000 2.171899 -68.662314 2.497915 -32.724942 14.627673 26.236555 34.925308 -4.303011 1.968315 -6.947711 -4.015092 -15.244366 -1.033388 -0.161240 -0.268510 0.000000 0.000000 0.000000 1.761975 -68.573521 2.677965 -25.792985 -21.492336 -29.464446 27.205547 7.656487 -3.218017 -8.996116 1.861659 22.522585 0.320691 0.238431 0.598417 0.000000 0.000000 0.000000 3.878564 -66.122433 3.715261 10.727945 -0.759390 -2.899143 4.319525 0.341798 -0.906327 0.586452 0.982454 0.201513 0.000000 0.000000 0.000000 4.565073 -0.285495 -0.673016 6.259980 5.012682 0.855213 -10.153507 60.823067 0.584239 0.000000 0.000000 0.000000 4.406901 -0.365120 -0.897958 3.200191 -6.383444 -19.459142 -4.236663 -1.851845 6.381239 -11.506878 28.398629 -26.922394 4.150541 -48.513959 2.909139 0.000000 0.000000 0.000000 3.931760 0.356618 0.063169 -17.276385 -2.163246 10.170042 2.683798 0.015877 -0.393041 11.906924 -33.748453 43.117956 -18.710738 58.823788 21.075780 0.000000 0.000000 0.000000 
0.416817 101.782265 -0.466366 0.000000 0.000000 0.000000 0.357119 -68.508607 0.492698 -33.198899 13.823582 26.675107 36.724308 -3.496803 2.071378 -7.158726 -4.283340 -15.202411 -1.131980 -0.127272 -0.184936 0.000000 0.000000 0.000000 0.285801 -67.941299 0.887309 -25.158093 -21.595637 -29.579951 27.906449 7.757851 -3.080958 -9.673628 1.465902 22.548992 -0.448511 0.282653 0.490742 0.000000 0.000000 0.000000 2.799758 -65.868432 2.212304 9.776985 -0.699331 -2.540311 3.050401 -0.126291 -0.443663 0.879936 0.478476 -0.210173 0.000000 0.000000 0.000000 3.513167 -1.009882 -0.005801 4.959563 4.965287 -0.706093 -1.739440 61.482399 -8.067063 0.000000 0.000000 0.000000 2.888234 -0.798423 -0.364984 2.248126 -7.175441 -21.209944 -3.587915 -1.964840 7.703207 -3.346183 29.115119 -27.963385 3.690517 -50.800000 2.829385 0.000000 0.000000 0.000000 2.848277 -0.182164 0.341198 -20.872747 -4.614980 4.144531 0.280656 1.330194 0.752123 10.648219 -49.426664 49.581795 -36.106712 76.887153 37.738803 0.000000 0.000000 0.000000 
0.302154 100.659317 -0.374596 0.000000 0.000000 0.000000 -0.577856 -67.488887 -0.535754 -34.048896 12.719959 26.816453 38.630286 -2.904075 2.232232 -7.205932 -5.036151 -15.344365 -1.265503 -0.103171 -0.014144 0.000000 0.000000 0.000000 -0.437511 -66.456620 0.009886 -25.111050 -21.965975 -30.079135 29.700418 7.759911 -3.038153 -10.961305 0.574664 22.183037 -0.635694 0.339638 0.356275 0.000000 0.000000 0.000000 2.285959 -64.921686 1.436045 8.740870 -0.377566 -2.287531 2.051335 -0.328751 -0.135826 0.916205 0.505036 -0.457739 0.000000 0.000000 0.000000 2.939577 -1.355981 0.394680 3.483127 4.911719 -1.885307 5.816817 60.866316 -15.011771 0.000000 0.000000 0.000000 1.697092 -0.843726 -0.007212 1.465422 -7.167634 -21.666883 -2.970705 -1.708170 7.863607 2.265995 25.579941 -28.022142 4.177478 -53.684232 3.339611 0.000000 0.000000 0.000000 2.131850 -0.437145 0.292013 -24.491296 -5.574227 -4.435770 -2.516005 1.105078 3.496500 4.498633 -64.147334 51.315853 -155.479462 75.617147 156.156907 0.000000 0.000000 0.000000 
0.404550 99.331268 -0.439602 0.000000 0.000000 0.000000 -0.443341 -65.720244 -0.448828 -35.181273 11.249925 26.550562 40.250301 -2.440965 2.385345 -7.100491 -6.136393 -15.603180 -1.266843 -0.092566 0.212243 0.000000 0.000000 0.000000 -0.438733 -64.392496 0.022614 -25.771388 -22.622391 -30.999316 32.371019 7.666587 -3.058949 -12.477999 -0.711470 21.376028 0.028104 0.410385 0.251763 0.000000 0.000000 0.000000 2.342491 -63.282556 1.412101 7.739892 0.355279 -2.141322 1.505596 -0.166985 -0.076451 0.763518 1.024270 -0.393203 0.000000 0.000000 0.000000 2.879753 -1.240402 0.410610 1.997719 4.803174 -2.435502 10.790735 59.278044 -18.755838 0.000000 0.000000 0.000000 0.929123 -0.419537 0.042516 0.881464 -6.501552 -20.605779 -2.123675 -0.810900 6.672479 4.539036 17.565722 -26.154594 4.766270 -55.893951 3.902912 0.000000 0.000000 0.000000 1.811225 -0.344912 -0.181284 -27.480313 -4.422390 -14.272339 -3.846885 -1.194316 6.006646 -19.488939 -73.956926 34.283127 -171.613106 56.428065 171.501624 0.000000 0.000000 0.000000 
